<svg width="12" height="12" viewBox="0 0 12 12" fill="none" xmlns="http://www.w3.org/2000/svg">
<path fill-rule="evenodd" clip-rule="evenodd" d="M5.62506 12C8.73166 12 11.2501 9.4816 11.2501 6.375C11.2501 3.2684 8.73166 0.75 5.62506 0.75C2.51846 0.75 6.10352e-05 3.2684 6.10352e-05 6.375C6.10352e-05 9.4816 2.51846 12 5.62506 12ZM3.05691 5.81796C3.24059 5.89286 3.4505 5.93031 3.68665 5.93031C3.91624 5.93031 4.11959 5.89286 4.29671 5.81796C4.47382 5.74306 4.62142 5.64008 4.73949 5.50902C4.85757 5.37171 4.94613 5.21567 5.00516 5.04092C5.07076 4.85992 5.10356 4.66644 5.10356 4.46047C5.10356 4.02982 4.9822 3.68031 4.73949 3.41193C4.49678 3.13731 4.14583 3 3.68665 3C3.4505 3 3.24387 3.03745 3.06675 3.11234C2.88964 3.181 2.73876 3.28086 2.61413 3.41193C2.49605 3.543 2.40422 3.69903 2.33862 3.88003C2.27958 4.05478 2.25006 4.24827 2.25006 4.46047C2.25006 4.66644 2.27958 4.85992 2.33862 5.04092C2.40422 5.21567 2.49605 5.37171 2.61413 5.50902C2.7322 5.64008 2.8798 5.74306 3.05691 5.81796ZM3.40401 9.12665C3.24585 9.37123 3.42141 9.69383 3.71267 9.69383C3.83753 9.69383 3.95385 9.63045 4.02155 9.52553L7.8213 3.63608C7.97753 3.39393 7.80369 3.0749 7.51552 3.0749C7.39204 3.0749 7.27699 3.13751 7.20994 3.24119L3.40401 9.12665ZM3.12579 3.90811C3.23731 3.74584 3.42426 3.6647 3.68665 3.6647C3.93592 3.6647 4.11303 3.74584 4.21799 3.90811C4.32295 4.07039 4.37543 4.25451 4.37543 4.46047C4.37543 4.67268 4.32295 4.85992 4.21799 5.02219C4.11303 5.18447 3.93592 5.2656 3.68665 5.2656C3.42426 5.2656 3.23731 5.18759 3.12579 5.03155C3.01427 4.86928 2.95852 4.67892 2.95852 4.46047C2.95852 4.25451 3.01427 4.07039 3.12579 3.90811ZM6.95341 9.63766C7.13709 9.71255 7.347 9.75 7.58315 9.75C7.80618 9.75 8.00626 9.71255 8.18337 9.63766C8.36048 9.56276 8.50808 9.45978 8.62615 9.32871C8.75079 9.1914 8.84263 9.03537 8.90166 8.86061C8.96726 8.67961 9.00006 8.48613 9.00006 8.28017C9.00006 8.06796 8.96726 7.87448 8.90166 7.69972C8.84263 7.51872 8.75079 7.36269 8.62615 7.23162C8.50808 7.10055 8.36048 7.00069 8.18337 6.93204C8.00626 6.85714 7.80618 6.81969 7.58315 6.81969C7.347 6.81969 7.14037 6.85714 6.96325 6.93204C6.78614 7.00069 6.63526 7.10055 6.51063 7.23162C6.38599 7.36269 6.29088 7.51872 6.22528 7.69972C6.16624 7.87448 6.13672 8.06796 6.13672 8.28017C6.13672 8.48613 6.16624 8.67961 6.22528 8.86061C6.29088 9.03537 6.38271 9.1914 6.50079 9.32871C6.62543 9.45978 6.7763 9.56276 6.95341 9.63766ZM7.01245 7.72781C7.12397 7.56553 7.31092 7.4844 7.57331 7.4844C7.82914 7.4844 8.00626 7.56553 8.10465 7.72781C8.20961 7.89008 8.26209 8.0742 8.26209 8.28017C8.26209 8.49237 8.20961 8.67961 8.10465 8.84189C8.00626 9.00416 7.82914 9.0853 7.57331 9.0853C7.31748 9.0853 7.13381 9.00728 7.02229 8.85125C6.91077 8.68897 6.85502 8.49861 6.85502 8.28017C6.85502 8.0742 6.90749 7.89008 7.01245 7.72781Z" fill="#CA2250"/>
</svg>
